<?xml version="1.0" standalone="no"?>
<!DOCTYPE svg PUBLIC "-//W3C//DTD SVG 20010904//EN"
 "http://www.w3.org/TR/2001/REC-SVG-20010904/DTD/svg10.dtd">
<svg version="1.0" xmlns="http://www.w3.org/2000/svg"
 width="300.000000pt" height="282.000000pt" viewBox="0 0 300.000000 282.000000"
 preserveAspectRatio="xMidYMid meet">
<metadata>
Created by potrace 1.10, written by Peter Selinger 2001-2011
</metadata>
<g transform="translate(0.000000,282.000000) scale(0.050000,-0.050000)"
fill="#000000" stroke="none">
<path d="M571 5281 c-31 -21 -99 -53 -149 -72 -113 -42 -137 -62 -108 -91 15
-15 39 -12 83 10 90 47 88 49 182 -173 47 -113 102 -241 122 -285 145 -324
419 -959 419 -971 0 -9 -32 -26 -70 -39 -65 -21 -88 -56 -58 -86 7 -7 63 13
125 44 62 31 169 78 238 104 115 44 145 71 113 103 -7 7 -43 -2 -80 -20 -94
-45 -40 -143 -482 885 -137 319 -256 591 -263 604 -10 19 -28 15 -72 -13z"/>
<path d="M2299 5233 c-222 -61 -346 -270 -258 -434 35 -66 217 -28 186 40 -75
164 0 321 153 321 139 0 204 -112 224 -390 l6 -80 -145 -13 c-422 -38 -610
-407 -319 -625 162 -120 411 1 483 235 26 84 35 79 60 -35 7 -31 40 -84 73
-117 146 -147 395 34 319 232 -31 82 -72 56 -65 -41 5 -55 -4 -91 -26 -113
-97 -97 -121 -20 -202 667 -32 271 -240 421 -489 353z m321 -689 c0 -339 -306
-566 -414 -308 -79 189 97 367 399 402 8 1 15 -41 15 -94z"/>
<path d="M3507 5188 c-193 -127 -228 -393 -68 -523 17 -14 110 -67 207 -118
287 -150 312 -353 52 -427 -202 -58 -342 36 -358 240 -13 167 -64 185 -82 30
-6 -55 -18 -132 -26 -172 -43 -205 530 -257 712 -65 202 214 116 416 -258 604
-180 91 -223 173 -157 301 110 212 431 93 431 -160 0 -172 47 -160 77 20 12
76 28 152 35 170 42 109 -427 192 -565 100z"/>
<path d="M1370 4999 c-66 -33 -131 -59 -144 -59 -33 0 -46 -27 -27 -58 13 -21
25 -21 60 -2 71 37 69 19 -28 -271 -113 -341 -117 -307 50 -411 77 -49 214
-135 303 -193 192 -124 160 -120 324 -43 115 54 203 152 97 108 -103 -43 -100
-44 -579 263 l-164 105 85 253 c75 224 92 258 146 286 34 18 57 44 52 58 -12
35 -39 30 -175 -36z"/>
<path d="M4710 4902 c-168 -77 -246 -282 -119 -314 83 -21 117 -2 135 77 53
223 374 220 374 -4 0 -67 -118 -387 -138 -376 -352 195 -641 166 -732 -73
-126 -329 274 -537 548 -285 52 48 64 54 53 23 -79 -206 30 -393 208 -357 109
22 228 205 153 233 -35 14 -52 -2 -52 -46 0 -84 -161 -136 -176 -57 -3 19 58
183 137 366 201 467 207 607 34 738 -140 105 -298 134 -425 75z m154 -636 c91
-36 91 -39 19 -139 -206 -285 -547 -298 -495 -19 34 180 245 250 476 158z"/>
<path d="M2971 3875 c-12 -42 -49 -201 -62 -270 -20 -104 -14 -237 11 -285 34
-63 44 -38 23 57 -25 113 47 468 94 459 140 -27 150 -443 13 -556 -29 -24 -32
-17 -27 72 8 161 -2 268 -24 268 -13 0 -19 -59 -18 -155 2 -88 -8 -181 -23
-215 -14 -33 -35 -168 -48 -300 -16 -173 -27 -223 -37 -180 -7 33 -23 99 -34
147 -11 47 -14 155 -7 240 21 261 -43 393 -229 475 -225 100 -267 41 -176
-252 75 -240 99 -275 233 -333 115 -50 120 -55 150 -161 40 -135 33 -144 -50
-66 -116 109 -192 127 -277 68 -113 -79 -16 -167 147 -133 83 17 125 18 161 1
74 -34 59 -56 -39 -56 -57 0 -104 -14 -135 -39 -79 -64 -27 -84 246 -93 136
-5 271 -12 300 -17 71 -12 201 26 192 55 -10 28 -213 77 -244 59 -12 -7 -9 3
6 21 30 36 74 48 53 14 -7 -12 17 -20 60 -20 133 0 197 -95 132 -198 -38 -59
-676 -24 -757 42 -28 24 -34 -6 -7 -35 10 -10 29 -118 42 -239 37 -343 40
-353 120 -382 89 -32 306 -32 410 -1 l80 24 43 190 c24 104 45 220 45 257 1
37 16 78 33 90 104 76 46 272 -80 272 -32 0 -51 11 -51 30 0 34 -90 42 -110
10 -7 -11 -31 -20 -54 -20 -41 0 -41 1 -6 39 98 109 307 147 372 69 31 -38 54
-35 51 7 -3 41 -42 62 -119 64 -32 0 -51 10 -44 21 16 26 110 26 110 0 0 -13
13 -12 36 2 27 17 57 15 122 -7 l87 -29 -69 -53 c-83 -63 -210 -71 -290 -19
-51 34 -52 34 -29 -8 72 -135 446 -53 419 92 -15 75 -347 111 -413 45 -21 -21
-62 -43 -91 -51 -30 -7 -94 -50 -143 -95 -107 -99 -108 -94 -19 82 84 167 75
162 258 169 214 8 303 78 327 254 11 81 9 84 -37 71 -26 -7 -91 -13 -143 -13
-104 0 -275 -124 -275 -199 0 -19 -24 -56 -53 -83 -28 -26 -78 -104 -109 -173
-76 -168 -86 -158 -69 67 16 221 23 248 68 248 137 0 230 343 145 532 -53 116
-170 191 -191 123z m-371 -291 c131 -64 184 -152 196 -329 15 -202 -79 -67
-107 155 -17 128 -36 149 -26 28 l7 -92 -49 32 c-46 30 -48 29 -36 -2 8 -22 1
-36 -21 -41 -24 -5 -11 -18 40 -40 52 -23 86 -57 115 -117 64 -132 55 -146
-55 -90 -108 55 -125 84 -197 330 -70 241 -56 258 133 166z m989 -309 c-39
-132 -115 -187 -274 -200 -128 -9 -141 1 -60 48 39 22 72 27 114 15 32 -9 64
-12 69 -7 6 6 -10 16 -34 22 -47 12 -61 47 -19 48 34 1 105 56 90 70 -6 7 -30
2 -53 -10 -32 -17 -42 -17 -43 3 -1 14 -11 7 -22 -17 -18 -37 -94 -87 -132
-87 -36 0 128 139 173 146 156 24 205 16 191 -31z m-929 -415 c26 -17 25 -19
-5 -20 -40 0 -47 -32 -10 -47 14 -5 -6 -10 -45 -11 -101 -2 -142 29 -91 68 44
34 107 38 151 10z m215 -216 c-3 -31 -20 -36 -114 -33 -121 3 -141 32 -37 51
125 24 154 20 151 -18z m195 16 c7 -11 -5 -20 -27 -20 -22 0 -44 -11 -50 -25
-5 -14 -11 -5 -11 20 -2 47 63 65 88 25z m210 -60 c-40 -26 -246 -26 -230 0 7
11 68 20 136 20 88 -1 115 -6 94 -20z m-295 -178 c141 -2 175 -8 175 -32 0
-21 -21 -30 -70 -30 -43 0 -70 10 -70 25 -1 20 -4 20 -16 0 -17 -26 -116 -24
-239 5 -79 18 -87 55 -10 42 30 -5 134 -9 230 -10z m275 -27 c1 -17 7 -16 19
4 26 41 48 13 31 -40 -10 -31 -20 -37 -36 -21 -12 12 -38 22 -57 22 -24 0 -32
10 -24 30 14 36 67 40 67 5z m-478 -150 c1 -21 5 -25 11 -10 20 48 87 29 87
-25 0 -50 -45 -70 -69 -31 -7 11 -24 15 -39 9 -17 -7 -30 9 -37 41 -6 34 -1
51 18 51 15 0 28 -16 29 -35z m458 -15 c0 -31 -11 -50 -30 -50 -56 0 -36 79
25 98 3 1 5 -20 5 -48z m-243 -27 c5 -38 -2 -45 -40 -40 -31 5 -49 23 -54 54
-5 38 2 45 40 40 31 -5 49 -23 54 -54z m143 6 c0 -45 -8 -51 -55 -45 -85 9
-79 96 6 96 39 0 49 -10 49 -51z m-260 -109 c0 -22 -13 -40 -30 -40 -17 0 -30
18 -30 40 0 22 13 40 30 40 17 0 30 -18 30 -40z m120 0 c0 -27 -13 -40 -40
-40 -27 0 -40 13 -40 40 0 27 13 40 40 40 27 0 40 -13 40 -40z m136 5 c-8 -40
-71 -58 -100 -29 -30 30 0 64 57 64 37 0 48 -9 43 -35z m136 20 c-9 -8 -21
-15 -29 -15 -7 0 -25 -8 -39 -17 -32 -20 -53 -4 -35 26 7 11 37 21 66 21 28 0
45 -7 37 -15z m-410 -105 c21 0 38 -13 38 -30 0 -45 -128 -26 -137 20 -5 27 2
32 27 23 18 -7 51 -13 72 -13z m278 -8 c0 -15 -20 -33 -44 -39 -53 -14 -65 -5
-49 36 15 38 93 41 93 3z m-130 -22 c0 -11 -20 -23 -45 -26 -31 -5 -45 3 -45
26 0 23 14 31 45 26 25 -3 45 -15 45 -26z m116 -43 c19 -18 -25 -67 -58 -67
-35 0 -37 53 -3 67 37 14 47 15 61 0z m-126 -37 c0 -17 -18 -30 -40 -30 -40 0
-52 21 -27 47 25 24 67 13 67 -17z"/>
<path d="M4359 2169 c-23 -27 -77 -316 -79 -414 -1 -90 61 -17 137 161 95 225
97 235 44 263 -52 28 -72 26 -102 -10z"/>
<path d="M3620 1971 c-87 -47 -138 -166 -153 -357 l-13 -172 -60 -6 c-96 -10
-92 -56 4 -56 45 0 82 -7 82 -15 0 -8 23 -181 50 -385 65 -483 65 -480 -9
-480 -56 0 -97 -30 -73 -54 10 -10 252 15 448 46 103 16 68 59 -42 51 -83 -6
-93 -2 -102 40 -10 52 -113 799 -112 820 0 7 54 19 121 27 77 9 118 22 113 37
-9 26 -68 28 -176 7 l-72 -15 -13 106 c-27 222 -17 311 36 346 96 63 167 -7
142 -140 -14 -76 34 -103 124 -69 46 17 49 26 40 113 -19 162 -183 239 -335
156z"/>
<path d="M4430 1708 c-297 -162 -337 -568 -83 -843 254 -275 720 -160 722 179
1 136 -40 148 -57 17 -47 -353 -417 -364 -593 -18 -49 95 -45 101 101 147 61
20 167 61 238 93 70 31 140 57 155 57 84 0 -23 261 -140 345 -80 57 -259 69
-343 23z m229 -87 c50 -50 121 -189 120 -235 0 -39 -410 -217 -429 -187 -140
228 132 599 309 422z"/>
<path d="M1390 1683 c-438 -201 -424 -928 20 -994 162 -24 370 67 370 163 0
44 -39 33 -112 -31 -163 -143 -401 -73 -449 132 -33 141 42 391 164 550 198
254 546 113 368 -150 l-49 -72 52 -40 c81 -64 128 -39 174 93 90 257 -253 479
-538 349z"/>
<path d="M2426 1440 c-182 -93 -228 -320 -65 -320 l79 0 0 100 c0 106 45 178
115 182 175 12 244 -123 193 -377 l-12 -61 -155 11 c-257 17 -416 -77 -434
-258 -30 -300 359 -380 517 -107 l46 80 11 -107 c18 -178 153 -258 269 -158
80 69 107 253 30 205 -11 -7 -20 -39 -20 -70 0 -75 -69 -120 -115 -74 -26 27
-26 62 3 312 40 351 40 401 0 501 -62 156 -294 226 -462 141z m298 -570 c-36
-236 -282 -421 -387 -291 -79 97 1 301 129 327 122 25 264 5 258 -36z"/>
</g>
</svg>
